<?xml version="1.0" encoding="UTF-8"?>
<svg width="22px" height="22px" viewBox="0 0 22 22" version="1.1" xmlns="http://www.w3.org/2000/svg" xmlns:xlink="http://www.w3.org/1999/xlink">
    <!-- Generator: Sketch 49.3 (51167) - http://www.bohemiancoding.com/sketch -->
    <title>设置</title>
    <desc>Created with Sketch.</desc>
    <defs></defs>
    <g id="雷竞技2.0-copy" stroke="none" stroke-width="1" fill="none" fill-rule="evenodd">
        <g id="icon切图" transform="translate(-70.000000, -1271.000000)">
            <g id="设置" transform="translate(70.000000, 1271.000000)">
                <path d="M14.4765344,15.8907479 C13.7536018,16.4055629 12.9116566,16.7640946 12,16.9170416 L12,18 C12,18.5522847 11.5522847,19 11,19 C10.4477153,19 10,18.5522847 10,18 L10,16.9170416 C9.08834339,16.7640946 8.24639817,16.4055629 7.52346564,15.8907479 L7.05025253,16.363961 C6.65972824,16.7544853 6.02656326,16.7544853 5.63603897,16.363961 C5.24551468,15.9734367 5.24551468,15.3402718 5.63603897,14.9497475 L6.10925208,14.4765344 C5.59443708,13.7536018 5.23590544,12.9116566 5.08295844,12 L4,12 C3.44771525,12 3,11.5522847 3,11 C3,10.4477153 3.44771525,10 4,10 L5.08295844,10 C5.23590544,9.08834339 5.59443708,8.24639817 6.10925208,7.52346564 L5.63603897,7.05025253 C5.24551468,6.65972824 5.24551468,6.02656326 5.63603897,5.63603897 C6.02656326,5.24551468 6.65972824,5.24551468 7.05025253,5.63603897 L7.52346564,6.10925208 C8.24639817,5.59443708 9.08834339,5.23590544 10,5.08295844 L10,4 C10,3.44771525 10.4477153,3 11,3 C11.5522847,3 12,3.44771525 12,4 L12,5.08295844 C12.9116566,5.23590544 13.7536018,5.59443708 14.4765344,6.10925208 L14.9497475,5.63603897 C15.3402718,5.24551468 15.9734367,5.24551468 16.363961,5.63603897 C16.7544853,6.02656326 16.7544853,6.65972824 16.363961,7.05025253 L15.8907479,7.52346564 C16.4055629,8.24639817 16.7640946,9.08834339 16.9170416,10 L18,10 C18.5522847,10 19,10.4477153 19,11 C19,11.5522847 18.5522847,12 18,12 L16.9170416,12 C16.7640946,12.9116566 16.4055629,13.7536018 15.8907479,14.4765344 L16.363961,14.9497475 C16.7544853,15.3402718 16.7544853,15.9734367 16.363961,16.363961 C15.9734367,16.7544853 15.3402718,16.7544853 14.9497475,16.363961 L14.4765344,15.8907479 Z M11,15 C13.209139,15 15,13.209139 15,11 C15,8.790861 13.209139,7 11,7 C8.790861,7 7,8.790861 7,11 C7,13.209139 8.790861,15 11,15 Z" id="Combined-Shape" fill="#758BB5"></path>
                <circle id="Combined-Shape" fill="#BACEF1" cx="11" cy="11" r="1"></circle>
            </g>
        </g>
    </g>
</svg>