<?xml version="1.0" encoding="UTF-8"?>
<svg width="16px" height="16px" viewBox="0 0 16 16" version="1.1" xmlns="http://www.w3.org/2000/svg" xmlns:xlink="http://www.w3.org/1999/xlink">
    <!-- Generator: Sketch 49.3 (51167) - http://www.bohemiancoding.com/sketch -->
    <title>投注单提示@2x</title>
    <desc>Created with Sketch.</desc>
    <defs></defs>
    <g id="雷竞技2.0（调整v01）" stroke="none" stroke-width="1" fill="none" fill-rule="evenodd">
        <g id="icon切图" transform="translate(-164.000000, -1317.000000)" fill="#FFFAA8">
            <g id="投注单提示" transform="translate(164.000000, 1317.000000)">
                <path d="M8,16 C3.581722,16 0,12.418278 0,8 C0,3.581722 3.581722,0 8,0 C12.418278,0 16,3.581722 16,8 C16,12.418278 12.418278,16 8,16 Z M8,15 C11.8659932,15 15,11.8659932 15,8 C15,4.13400675 11.8659932,1 8,1 C4.13400675,1 1,4.13400675 1,8 C1,11.8659932 4.13400675,15 8,15 Z" id="Combined-Shape"></path>
                <path d="M7,4 L9,4 L9,9 L7,9 L7,4 Z M7,10 L9,10 L9,12 L7,12 L7,10 Z" id="Combined-Shape"></path>
            </g>
        </g>
    </g>
</svg>