<?xml version="1.0" encoding="UTF-8"?>
<svg width="22px" height="22px" viewBox="0 0 22 22" version="1.1" xmlns="http://www.w3.org/2000/svg" xmlns:xlink="http://www.w3.org/1999/xlink">
    <!-- Generator: Sketch 49.3 (51167) - http://www.bohemiancoding.com/sketch -->
    <title>未开始</title>
    <desc>Created with Sketch.</desc>
    <defs></defs>
    <g id="雷竞技2.0-copy" stroke="none" stroke-width="1" fill="none" fill-rule="evenodd">
        <g id="icon切图" transform="translate(-128.000000, -1113.000000)" fill="#2197F4">
            <g id="未开始" transform="translate(128.000000, 1113.000000)">
                <path d="M13.85767,13.1506114 C13.8720276,13.1653071 13.8854869,13.1808842 13.8979592,13.1972539 L13.9100952,13.2113037 L13.9089762,13.2122846 C13.9663214,13.293649 14,13.3928915 14,13.5 C14,13.7761424 13.7761424,14 13.5,14 C13.3692925,14 13.2502991,13.9498459 13.1612148,13.8677325 L13.1604614,13.8683929 L11,12 C10.4477153,12 10,11.5522847 10,11 C10,10.9300134 10.0071896,10.8617059 10.0208706,10.795776 L10.4447904,7.43738337 C10.4763406,7.18743521 10.6889225,7 10.9408541,7 L11.0594146,7 C11.311231,7 11.5237534,7.18726859 11.5554403,7.43708333 L11.9863908,10.8346335 C11.9953422,10.8884251 12,10.9436686 12,11 L13.8576695,13.1506109 Z M11,5 C14.3,5 17,7.7 17,11 C17,14.3 14.3,17 11,17 C7.7,17 5,14.3 5,11 C5,7.7 7.7,5 11,5 Z M11,16 C13.75,16 16,13.75 16,11 C16,8.25 13.75,6 11,6 C8.25,6 6,8.25 6,11 C6,13.75 8.25,16 11,16 Z" id="Combined-Shape"></path>
            </g>
        </g>
    </g>
</svg>