<?xml version="1.0" standalone="no"?>
<!DOCTYPE svg PUBLIC "-//W3C//DTD SVG 20010904//EN"
 "http://www.w3.org/TR/2001/REC-SVG-20010904/DTD/svg10.dtd">
<svg version="1.0" xmlns="http://www.w3.org/2000/svg"
 width="512.000000pt" height="512.000000pt" viewBox="0 0 512.000000 512.000000"
 preserveAspectRatio="xMidYMid meet">
<metadata>
Created by potrace 1.11, written by Peter Selinger 2001-2013
</metadata>
<g transform="translate(0.000000,512.000000) scale(0.100000,-0.100000)"
fill="#000000" stroke="none">
<path d="M0 2560 l0 -2560 2560 0 2560 0 0 2560 0 2560 -2560 0 -2560 0 0
-2560z m2802 1854 c-60 -104 -209 -358 -332 -564 -123 -206 -248 -417 -278
-467 -30 -51 -56 -93 -59 -93 -2 0 -2 3 0 8 49 84 385 675 442 777 66 117 159
270 302 498 14 22 27 37 29 34 3 -2 -44 -89 -104 -193z m-18 -350 c-69 -120
-207 -363 -306 -539 -99 -176 -192 -340 -206 -365 l-26 -45 25 21 c59 51 656
569 874 758 132 115 282 247 333 294 50 46 92 82 92 80 0 -3 -44 -78 -98 -169
-54 -90 -279 -471 -502 -846 -222 -376 -407 -683 -410 -683 -3 0 -77 120 -164
266 l-158 267 -63 -96 c-34 -52 -83 -128 -108 -168 -26 -41 -47 -70 -47 -66 0
16 205 375 430 752 124 209 277 466 340 572 63 106 115 191 117 189 2 -1 -54
-101 -123 -222z m-711 209 l-161 -3 9 -33 c14 -52 199 -906 199 -919 0 -10
-379 616 -553 915 l-28 47 348 -2 c191 -1 275 -4 186 -5z m-963 -2393 l0 -200
-71 0 -70 0 91 -105 91 -105 -89 0 -90 0 -115 133 c-83 95 -116 141 -119 165
l-5 32 114 0 113 0 0 80 0 80 -150 0 -150 0 0 -245 0 -245 -75 0 -75 0 0 305
0 305 300 0 300 0 0 -200z m645 178 c18 -74 125 -571 125 -579 0 -5 -33 -9
-74 -9 l-74 0 -7 46 c-11 78 -4 74 -142 74 -114 0 -124 1 -119 18 3 9 10 36
16 60 l11 42 94 0 c52 0 95 4 95 9 0 4 -11 58 -25 119 -14 61 -25 113 -25 116
0 3 -36 6 -79 6 l-79 0 -21 -92 c-12 -51 -36 -160 -54 -243 l-33 -150 -75 -3
-76 -3 64 293 c35 161 66 299 68 306 3 9 53 12 204 12 200 0 201 0 206 -22z
m358 -78 c37 -52 72 -96 77 -98 4 -2 40 42 80 98 l72 100 89 0 c49 0 89 -2 89
-4 0 -3 -57 -85 -126 -182 l-125 -177 0 -123 0 -124 -75 0 -74 0 0 118 0 118
-130 184 c-71 101 -130 185 -130 187 0 2 41 2 92 1 l92 -3 69 -95z m1027 -25
l0 -125 35 0 35 0 0 -180 0 -180 -295 0 -295 0 0 60 0 60 225 0 225 0 0 60 0
60 -116 0 c-105 0 -115 2 -110 18 3 9 10 36 16 60 l11 42 59 0 60 0 0 65 0 65
-110 0 -110 0 0 -155 0 -155 -75 0 -75 0 0 215 0 215 260 0 260 0 0 -125z
m726 108 c-3 -10 -10 -37 -16 -60 l-11 -43 -179 0 -180 0 0 -65 0 -65 150 0
150 0 0 -60 0 -60 -150 0 -150 0 0 -60 0 -60 211 0 c196 0 210 -1 205 -17 -3
-10 -10 -37 -16 -60 l-11 -43 -269 0 -270 0 0 305 0 305 271 0 c253 0 270 -1
265 -17z m734 10 c0 -5 -6 -30 -13 -58 l-13 -50 -97 -3 -97 -3 0 -244 0 -245
-75 0 -75 0 0 245 0 245 -115 0 -115 0 0 60 0 60 300 0 c165 0 300 -3 300 -7z
m-2015 -853 c-4 -19 2 -20 152 -20 138 0 154 -2 149 -16 -3 -9 -9 -27 -12 -40
l-6 -24 -375 0 -374 0 3 38 3 37 153 3 c144 2 152 4 152 22 0 18 7 20 79 20
74 0 80 -1 76 -20z m645 -10 c0 -28 3 -30 35 -30 33 0 35 -2 35 -35 0 -33 -2
-35 -35 -35 l-35 0 0 -72 0 -72 28 27 c15 15 31 27 35 27 4 0 7 -22 7 -49 0
-44 -3 -51 -35 -75 l-35 -27 0 -175 0 -174 -100 0 -100 0 0 35 c0 33 2 35 35
35 l35 0 0 80 c0 44 -3 80 -7 80 -4 0 -20 -12 -35 -27 l-28 -27 0 56 c0 52 2
57 35 82 l35 27 0 126 0 126 -35 -6 -35 -6 0 40 c0 38 1 39 35 39 32 0 35 2
35 30 l0 30 65 0 65 0 0 -30z m410 0 l0 -30 100 0 99 0 -14 -32 -13 -33 -86
-3 -86 -3 0 -39 0 -40 100 0 100 0 0 -84 0 -85 -85 -67 c-47 -37 -85 -70 -84
-73 0 -3 36 -34 79 -68 63 -51 86 -63 115 -63 19 0 35 -2 35 -4 0 -1 -5 -17
-11 -35 l-11 -31 -75 0 -75 0 -73 60 c-40 33 -78 60 -83 60 -5 0 -42 -27 -83
-60 l-73 -60 -84 0 -83 0 3 38 c3 35 5 37 43 42 30 4 60 21 113 64 l71 58 -81
64 -81 64 93 0 c85 0 96 -2 127 -26 l34 -26 55 44 c31 23 62 48 70 54 8 6 14
21 14 33 0 21 -2 21 -200 21 l-200 0 0 40 0 40 100 0 100 0 0 41 0 40 -100 -3
-100 -3 0 38 0 37 100 0 100 0 0 30 0 30 65 0 65 0 0 -30z m-1640 -15 l0 -35
-170 0 -170 0 0 -25 0 -25 170 0 170 0 0 -115 0 -115 -60 0 -60 0 0 80 0 80
-110 0 -110 0 0 -80 0 -80 -60 0 -60 0 0 80 0 80 -109 0 -109 0 1 -80 2 -80
-62 0 -63 0 0 115 0 115 170 0 170 0 0 25 0 25 -170 0 -170 0 0 35 0 35 400 0
400 0 0 -35z m350 -120 l0 -25 155 0 155 0 0 25 c0 24 2 25 75 25 l75 0 -6
-25 c-6 -24 -5 -25 50 -25 l56 0 0 -35 0 -35 -400 -2 -400 -3 0 38 0 37 51 0
c50 0 51 1 45 25 l-6 25 75 0 c73 0 75 -1 75 -25z m-860 -135 l0 -60 -60 0
-60 0 0 60 0 60 60 0 60 0 0 -60z m340 0 l0 -60 -60 0 -60 0 0 60 0 60 60 0
60 0 0 -60z m1050 -125 l0 -115 -105 0 -105 0 0 -55 0 -55 68 0 c66 0 68 1 79
30 11 29 13 30 76 30 l66 0 -25 -62 c-13 -34 -24 -63 -24 -65 0 -2 -83 -3
-185 -3 l-185 0 0 130 0 130 110 0 110 0 0 35 0 35 -250 0 -250 0 0 -35 0 -35
110 0 110 0 -1 -27 c-1 -22 -24 -49 -114 -131 l-114 -103 -87 3 -87 3 96 85
96 85 -64 3 -65 3 0 114 0 115 370 0 370 0 0 -115z m-880 -140 l0 -155 -400 0
-400 0 0 155 0 155 400 0 400 0 0 -155z"/>
<path d="M1320 675 l0 -85 110 0 110 0 0 25 c0 25 -1 25 -81 25 -73 0 -80 2
-74 18 4 9 10 25 12 35 4 14 17 17 74 17 67 0 69 1 69 25 l0 25 -110 0 -110 0
0 -85z"/>
<path d="M1660 735 l0 -25 110 0 110 0 0 25 0 25 -110 0 -110 0 0 -25z"/>
<path d="M1660 615 l0 -25 110 0 110 0 0 25 0 25 -110 0 -110 0 0 -25z"/>
</g>
</svg>
