<?xml version="1.0" encoding="UTF-8"?>
<svg width="22px" height="22px" viewBox="0 0 22 22" version="1.1" xmlns="http://www.w3.org/2000/svg" xmlns:xlink="http://www.w3.org/1999/xlink">
    <!-- Generator: Sketch 55.2 (78181) - https://sketchapp.com -->
    <title>APP下载</title>
    <desc>Created with Sketch.</desc>
    <g id="雷竞技2.0（调整v01）" stroke="none" stroke-width="1" fill="none" fill-rule="evenodd">
        <g id="icon切图" transform="translate(-112.000000, -2091.000000)">
            <g id="APP下载" transform="translate(112.000000, 2091.000000)">
                <path d="M17,15.8999819 L17,13.8292943 C18.1651924,13.4174579 19,12.3062188 19,11 C19,9.34314575 17.6568542,8 16,8 C15.9666405,8 15.9334082,8.00054449 15.9003115,8.00162508 C15.4376693,5.71857515 13.419532,4 11,4 C8.58046798,4 6.56233069,5.71857515 6.09968852,8.00162508 C6.06659179,8.00054449 6.03335948,8 6,8 C4.34314575,8 3,9.34314575 3,11 C3,12.3062188 3.83480763,13.4174579 5,13.8292943 L5,15.8999819 C2.71775968,15.4367116 1,13.4189579 1,11 C1,8.7316472 2.51052176,6.81609565 4.58056363,6.20434702 C5.65974934,3.7297588 8.12787126,2 11,2 C13.8721287,2 16.3402507,3.7297588 17.4194364,6.20434702 C19.4894782,6.81609565 21,8.7316472 21,11 C21,13.4189579 19.2822403,15.4367116 17,15.8999819 Z" id="合并形状" fill="#0579A5"></path>
                <rect id="矩形" fill="#17A0A2" x="10" y="9" width="2" height="10" rx="1"></rect>
                <path d="M7.32783564,16.1224667 L11.2571042,19.0710793 C11.4026281,19.1584971 11.5,19.3178774 11.5,19.5 C11.5,19.7761424 11.2761424,20 11,20 C10.8716196,20 10.75454,19.9516158 10.6660013,19.8720879 L6.72438387,16.9172417 C6.70801957,16.9064102 6.69232979,16.8946419 6.67739081,16.8820132 L6.66654968,16.8738861 C6.5645795,16.781553 6.5,16.6483182 6.5,16.5 C6.5,16.2238576 6.72385763,16 7,16 C7.12542346,16 7.24006077,16.046181 7.32783564,16.1224667 Z" id="合并形状" fill="#17A0A2"></path>
                <path d="M11.3278356,16.1224667 L15.2571042,19.0710793 C15.4026281,19.1584971 15.5,19.3178774 15.5,19.5 C15.5,19.7761424 15.2761424,20 15,20 C14.8716196,20 14.75454,19.9516158 14.6660013,19.8720879 L10.7243839,16.9172417 C10.7080196,16.9064102 10.6923298,16.8946419 10.6773908,16.8820132 L10.6665497,16.8738861 C10.5645795,16.781553 10.5,16.6483182 10.5,16.5 C10.5,16.2238576 10.7238576,16 11,16 C11.1254235,16 11.2400608,16.046181 11.3278356,16.1224667 Z" id="合并形状" fill="#17A0A2" transform="translate(13.000000, 18.000000) scale(-1, 1) translate(-13.000000, -18.000000) "></path>
            </g>
        </g>
    </g>
</svg>