<?xml version="1.0" encoding="UTF-8"?>
<svg width="22px" height="22px" viewBox="0 0 22 22" version="1.1" xmlns="http://www.w3.org/2000/svg" xmlns:xlink="http://www.w3.org/1999/xlink">
    <!-- Generator: Sketch 49.3 (51167) - http://www.bohemiancoding.com/sketch -->
    <title>关闭显示密码</title>
    <desc>Created with Sketch.</desc>
    <defs></defs>
    <g id="雷竞技2.0-copy" stroke="none" stroke-width="1" fill="none" fill-rule="evenodd">
        <g id="icon切图" transform="translate(-24.000000, -1225.000000)" fill="#3F546A">
            <g id="关闭显示密码" transform="translate(24.000000, 1225.000000)">
                <path d="M11,17 C6.581722,17 3,12.9953003 3,11 C3,9.00469971 6.581722,5 11,5 C11,6.61572266 11,14.8277588 11,17 Z M11,15 C11,13.5518392 11,8.07714844 11,7 C7.6862915,7 5,10.1912028 5,11 C5,11.8087972 7.6862915,15 11,15 Z" id="Combined-Shape"></path>
                <path d="M19,17 C14.581722,17 11,12.9953003 11,11 C11,9.00469971 14.581722,5 19,5 C19,6.61572266 19,14.8277588 19,17 Z M19,15 C15.6862915,15 13,11.8087972 13,11 C13,10.1912028 15.6862915,7 19,7 C19,8.07714844 19,13.5518392 19,15 Z" id="Combined-Shape" transform="translate(15.000000, 11.000000) scale(-1, 1) translate(-15.000000, -11.000000) "></path>
                <path d="M17.8678354,17.1613264 C17.9498877,17.2503985 18,17.3693471 18,17.5 C18,17.7761424 17.7761424,18 17.5,18 C17.3540222,18 17.2226555,17.9374425 17.1312459,17.8376736 L4.13726807,4.84747314 L4.1388797,4.845822 C4.05285459,4.75601557 4,4.63418021 4,4.5 C4,4.22385763 4.22385763,4 4.5,4 C4.64667427,4 4.77859771,4.06315586 4.87005975,4.16375704 L17.8684998,17.160675 L17.8678354,17.1613264 Z" id="Combined-Shape"></path>
            </g>
        </g>
    </g>
</svg>