<?xml version="1.0" encoding="UTF-8"?>
<svg width="22px" height="22px" viewBox="0 0 22 22" version="1.1" xmlns="http://www.w3.org/2000/svg" xmlns:xlink="http://www.w3.org/1999/xlink">
    <!-- Generator: Sketch 49.3 (51167) - http://www.bohemiancoding.com/sketch -->
    <title>返回上一页</title>
    <desc>Created with Sketch.</desc>
    <defs></defs>
    <g id="雷竞技2.0-copy" stroke="none" stroke-width="1" fill="none" fill-rule="evenodd">
        <g id="icon切图" transform="translate(-24.000000, -1271.000000)">
            <g id="日历上一页" transform="translate(24.000000, 1271.000000)">
                <path d="M13.3285579,11.7410671 L13.3275757,11.7420349 L6.31991871,4.73314268 C6.3015352,4.71608174 6.28379441,4.69833783 6.26673669,4.67995128 L6.22937012,4.64257812 L6.23177917,4.64022385 C6.08706935,4.46677129 6,4.24355371 6,4 C6,3.44771525 6.44771525,3 7,3 C7.25182113,3 7.48190207,3.0930808 7.65771418,3.24671376 L7.65866089,3.24578857 L7.67560966,3.26273246 C7.69697157,3.28231847 7.71747936,3.30282037 7.73707115,3.32417623 L14.7527466,10.3378296 L14.7509396,10.33961 C14.9059709,10.5157603 15,10.7468993 15,11 C15,11.5522847 14.5522847,12 14,12 C13.7415708,12 13.5060377,11.90197 13.3285579,11.7410671 Z" id="Combined-Shape" fill="#758BB5" transform="translate(10.500000, 7.500000) scale(-1, 1) translate(-10.500000, -7.500000) "></path>
                <path d="M13.3285579,18.7410671 L13.3275757,18.7420349 L6.31991871,11.7331427 C6.3015352,11.7160817 6.28379441,11.6983378 6.26673669,11.6799513 L6.22937012,11.6425781 L6.23177917,11.6402239 C6.08706935,11.4667713 6,11.2435537 6,11 C6,10.4477153 6.44771525,10 7,10 C7.25182113,10 7.48190207,10.0930808 7.65771418,10.2467138 L7.65866089,10.2457886 L7.67560966,10.2627325 C7.69697157,10.2823185 7.71747936,10.3028204 7.73707115,10.3241762 L14.7527466,17.3378296 L14.7509396,17.33961 C14.9059709,17.5157603 15,17.7468993 15,18 C15,18.5522847 14.5522847,19 14,19 C13.7415708,19 13.5060377,18.90197 13.3285579,18.7410671 Z" id="Combined-Shape" fill="#BACEF1" transform="translate(10.500000, 14.500000) scale(-1, -1) translate(-10.500000, -14.500000) "></path>
            </g>
        </g>
    </g>
</svg>