<?xml version="1.0" encoding="UTF-8"?>
<svg width="22px" height="22px" viewBox="0 0 22 22" version="1.1" xmlns="http://www.w3.org/2000/svg" xmlns:xlink="http://www.w3.org/1999/xlink">
    <!-- Generator: Sketch 49.3 (51167) - http://www.bohemiancoding.com/sketch -->
    <title>显示密码</title>
    <desc>Created with Sketch.</desc>
    <defs></defs>
    <g id="雷竞技2.0-copy" stroke="none" stroke-width="1" fill="none" fill-rule="evenodd">
        <g id="icon切图" transform="translate(-70.000000, -1225.000000)" fill="#3F546A">
            <g id="显示密码" transform="translate(70.000000, 1225.000000)">
                <path d="M11,17 C6.581722,17 3,12.9953003 3,11 C3,9.00469971 6.581722,5 11,5 C11,6.61572266 11,14.8277588 11,17 Z M11,15 C7.6862915,15 5,11.8087972 5,11 C5,10.1912028 7.6862915,7 11,7 C11,8.07714844 11,13.5518392 11,15 Z" id="Combined-Shape"></path>
                <path d="M19,17 C14.581722,17 11,12.9953003 11,11 C11,9.00469971 14.581722,5 19,5 C19,6.61572266 19,14.8277588 19,17 Z M19,15 C15.6862915,15 13,11.8087972 13,11 C13,10.1912028 15.6862915,7 19,7 C19,8.07714844 19,13.5518392 19,15 Z" id="Combined-Shape" transform="translate(15.000000, 11.000000) scale(-1, 1) translate(-15.000000, -11.000000) "></path>
                <path d="M11,14 C9.34314575,14 8,12.6568542 8,11 C8,9.34314575 9.34314575,8 11,8 C12.6568542,8 14,9.34314575 14,11 C14,12.6568542 12.6568542,14 11,14 Z M11,13 C12.1045695,13 13,12.1045695 13,11 C13,9.8954305 12.1045695,9 11,9 C9.8954305,9 9,9.8954305 9,11 C9,12.1045695 9.8954305,13 11,13 Z" id="Combined-Shape"></path>
            </g>
        </g>
    </g>
</svg>